<?xml version="1.0" standalone="no"?>
<!DOCTYPE svg PUBLIC "-//W3C//DTD SVG 20010904//EN"
 "http://www.w3.org/TR/2001/REC-SVG-20010904/DTD/svg10.dtd">
<svg version="1.0" xmlns="http://www.w3.org/2000/svg"
 width="512.000000pt" height="512.000000pt" viewBox="0 0 512.000000 512.000000"
 preserveAspectRatio="xMidYMid meet">

<g transform="translate(0.000000,512.000000) scale(0.100000,-0.100000)"
fill="#000000" stroke="none">
<path d="M2330 5110 c-494 -48 -950 -230 -1350 -538 -195 -150 -448 -432 -594
-662 -63 -99 -186 -351 -230 -471 -49 -134 -102 -340 -128 -499 -31 -195 -31
-565 0 -760 45 -276 116 -498 237 -745 132 -269 269 -460 489 -681 221 -220
412 -357 681 -489 247 -121 469 -192 745 -237 195 -31 565 -31 760 0 276 45
498 116 745 237 269 132 460 269 681 489 220 221 357 412 489 681 88 179 132
296 180 476 63 240 78 371 78 649 0 278 -15 409 -78 649 -48 180 -92 297 -180
476 -132 269 -269 460 -489 681 -221 220 -412 357 -681 489 -246 121 -474 193
-740 235 -147 23 -475 34 -615 20z m585 -339 c637 -107 1177 -462 1531 -1006
163 -251 279 -558 331 -880 24 -153 24 -497 0 -650 -106 -652 -456 -1196
-1001 -1553 -258 -170 -563 -286 -891 -339 -153 -24 -497 -24 -650 0 -656 106
-1202 460 -1561 1012 -163 251 -279 558 -331 880 -24 153 -24 497 0 650 106
656 460 1202 1012 1561 291 189 661 315 1025 348 108 10 418 -4 535 -23z"/>
<path d="M2560 2560 l0 -1923 104 6 c430 27 798 163 1109 413 328 262 554 625
652 1044 40 172 49 255 49 460 0 205 -9 288 -49 460 -98 419 -324 782 -652
1044 -311 250 -679 386 -1109 413 l-104 6 0 -1923z"/>
</g>
</svg>
