<?xml version="1.0" standalone="no"?>
<!DOCTYPE svg PUBLIC "-//W3C//DTD SVG 20010904//EN"
 "http://www.w3.org/TR/2001/REC-SVG-20010904/DTD/svg10.dtd">
<svg version="1.0" xmlns="http://www.w3.org/2000/svg"
 width="512.000000pt" height="512.000000pt" viewBox="0 0 512.000000 512.000000"
 preserveAspectRatio="xMidYMid meet">

<g transform="translate(0.000000,512.000000) scale(0.100000,-0.100000)"
fill="#000000" stroke="none">
<path d="M3220 4674 c-46 -20 -77 -50 -103 -99 -22 -40 -22 -46 -22 -575 0
-529 0 -535 22 -575 40 -76 105 -115 188 -115 85 0 160 48 196 125 17 36 19
69 19 325 l1 285 98 -101 c452 -465 684 -1011 641 -1511 -26 -308 -117 -572
-283 -821 -257 -385 -672 -656 -1123 -732 -174 -29 -173 -29 -217 -69 -94 -84
-102 -211 -21 -301 72 -79 153 -86 391 -35 407 88 762 283 1059 579 317 318
511 687 596 1141 19 102 22 155 23 350 0 241 -6 296 -51 480 -99 401 -333 816
-652 1156 -40 42 -72 80 -72 83 0 3 91 6 203 6 175 0 207 3 242 19 164 76 166
298 3 382 -35 18 -65 19 -570 19 -453 -1 -538 -3 -568 -16z"/>
<path d="M2260 4673 c-82 -10 -274 -57 -385 -94 -314 -107 -582 -274 -821
-513 -345 -345 -555 -777 -614 -1266 -15 -125 -12 -377 5 -499 21 -139 65
-314 110 -437 116 -312 336 -662 583 -925 40 -42 72 -80 72 -83 0 -3 -92 -6
-205 -6 -183 0 -210 -2 -243 -19 -162 -83 -162 -299 1 -382 36 -19 60 -19 581
-17 l544 3 44 30 c23 17 54 51 68 75 l25 45 0 535 c0 529 0 535 -22 575 -41
77 -105 115 -193 115 -84 0 -161 -53 -194 -132 -13 -31 -16 -88 -16 -320 l-1
-283 -98 101 c-200 206 -343 406 -456 639 -80 164 -126 288 -155 423 -94 429
3 907 260 1282 255 372 660 638 1090 715 215 38 202 34 251 84 84 83 91 195
18 285 -54 65 -121 84 -249 69z"/>
</g>
</svg>
